# File created by Blade
# Date/Time:  Tue Apr 07 21:36:59 2015
# Frame Rate: 120.000 fps
#------------------------------------------------------
:FULLY-SPECIFIED
:DEGREES
841
root -3.804101 33.097077 6.491297 553.845460 176.387651 -543.419032
Spine -12.335998 -7.313062 4.995112
Head 9.481645 -4.190136 -3.819615
LeftShoulder -23.648455 37.847585 16.601265
LeftArm 55.714334 -58.294467 -55.292547
LeftForeArm 13.457921 0.000000 -1.476954
LeftHand 0.611230 0.000000 2.557168
LeftHandThumb1 -26.253704 0.000000 33.147579
RightShoulder -8.083280 4.510176 -32.613956
RightArm 10.680933 14.902565 36.637591
RightForeArm -17.054494 -0.000000 2.209551
RightHand -1.865625 0.000000 4.574767
RightHandThumb1 -24.326973 -0.000000 -32.862282
LeftUpLeg -9.087074 -3.059057 6.388806
LeftLeg -2.820787 -0.000000 0.000000
LeftFoot -5.545189 6.423549 -20.972039
LeftToeBase -9.658042 -0.000000 0.000000
RightUpLeg -7.631561 3.438162 1.800035
RightLeg -4.184031 -0.000000 0.000000
RightFoot -2.883191 -16.167670 6.670087
RightToeBase -6.756815 -0.000000 0.000000
842
root -3.816823 33.104381 6.507468 553.824869 176.411055 -543.608292
Spine -12.417358 -7.283433 5.168248
Head 9.648042 -4.208741 -3.830966
LeftShoulder -23.667388 37.870270 16.594262
LeftArm 55.545510 -58.346306 -55.093063
LeftForeArm 13.301554 0.000000 -1.470634
LeftHand 0.584524 -0.000000 3.039903
LeftHandThumb1 -26.253704 0.000000 33.147579
RightShoulder -8.037069 4.507259 -32.663028
RightArm 10.671153 14.974241 36.697633
RightForeArm -16.976333 -0.000000 2.129941
RightHand -1.850063 -0.000000 4.446064
RightHandThumb1 -24.326973 -0.000000 -32.862282
LeftUpLeg -9.021926 -3.004456 6.625024
LeftLeg -2.828754 -0.000000 0.000000
LeftFoot -5.536531 6.188838 -21.129235
LeftToeBase -9.771285 -0.000000 0.000000
RightUpLeg -7.570020 3.238606 2.058527
RightLeg -4.312347 -0.000000 0.000000
RightFoot -2.629255 -16.051899 6.675547
RightToeBase -7.019925 -0.000000 0.000000
843
root -3.833898 33.111627 6.523182 553.817865 176.422668 -543.826263
Spine -12.522860 -7.266704 5.373808
Head 9.841693 -4.213814 -3.842256
LeftShoulder -23.700830 37.934385 16.555176
LeftArm 55.479011 -58.448384 -54.992235
LeftForeArm 13.305256 -0.000000 -1.396931
LeftHand 0.541878 -0.000000 3.056456
LeftHandThumb1 -26.253704 0.000000 33.147579
RightShoulder -7.978735 4.481728 -32.698461
RightArm 10.691939 15.023257 36.786422
RightForeArm -16.920568 0.000000 2.054877
RightHand -1.805283 -0.000000 4.266368
RightHandThumb1 -24.326973 -0.000000 -32.862282
LeftUpLeg -8.944078 -3.150358 6.929014
LeftLeg -2.907077 -0.000000 0.000000
LeftFoot -5.580658 6.207221 -21.243390
LeftToeBase -9.833357 -0.000000 0.000000
RightUpLeg -7.519699 3.044021 2.356861
RightLeg -4.454645 -0.000000 0.000000
RightFoot -2.383730 -15.961735 6.741749
RightToeBase -7.269602 -0.000000 0.000000
844
root -3.843278 33.119049 6.538984 553.825954 176.478091 -543.973143
Spine -12.646412 -7.209261 5.500902
Head 10.063197 -4.333361 -3.840385
LeftShoulder -23.711862 38.021268 16.538637
LeftArm 55.450437 -58.518429 -54.947426
LeftForeArm 13.255754 -0.000000 -1.293147
LeftHand 0.541825 -0.000000 2.981092
LeftHandThumb1 -26.253704 0.000000 33.147579
RightShoulder -7.942486 4.491963 -32.757474
RightArm 10.716066 14.996058 36.920982
RightForeArm -16.900235 -0.000000 1.967238
RightHand -1.684273 -0.000000 4.342026
RightHandThumb1 -24.326973 -0.000000 -32.862282
LeftUpLeg -8.928190 -2.982733 7.098830
LeftLeg -2.870650 -0.000000 0.000000
LeftFoot -5.509889 5.891783 -21.359409
LeftToeBase -9.934434 -0.000000 0.000000
RightUpLeg -7.476991 2.867846 2.555579
RightLeg -4.603463 -0.000000 0.000000
RightFoot -2.141761 -15.811549 6.784710
RightToeBase -7.513475 -0.000000 0.000000
